<?xml version="1.0" encoding="utf-8"?>
<!-- Generator: Adobe Illustrator 23.1.0, SVG Export Plug-In . SVG Version: 6.00 Build 0)  -->
<svg version="1.1" id="Layer_1" xmlns="http://www.w3.org/2000/svg" xmlns:xlink="http://www.w3.org/1999/xlink" x="0px" y="0px"
	 viewBox="0 0 272 66" style="enable-background:new 0 0 272 66;" xml:space="preserve">
<style type="text/css">
	.st0{fill:#333333;}
</style>
<g>
	<rect x="-0.2" y="61.3" class="st0" width="67.2" height="4.4"/>
	<g>
		<g>
			<path class="st0" d="M73.9,46.5h11.4V49h-8.5v5.7h7.5v2.5h-7.5v6.1h8.7v2.5H73.9V46.5z"/>
			<path class="st0" d="M97.5,65.7l-3.4-5.1l-3.3,5.1h-2.9l4.7-7L88.1,52h3l3,4.8l3.1-4.8h2.9l-4.4,6.7l4.6,7H97.5z"/>
			<path class="st0" d="M114.9,65.7h-2.7v-8.4c0-2.4-1-3.4-2.7-3.4c-2,0-3.5,1.5-3.5,4.4v7.4h-2.7V46.5h2.7v7.8
				c0.6-1.6,2-2.6,4.1-2.6c3.1,0,4.8,2,4.8,5.5C114.9,57.2,114.9,65.7,114.9,65.7z"/>
			<path class="st0" d="M119.1,49.4v-2.9h2.7v2.9H119.1z M119.1,65.7V52h2.7v13.7H119.1z"/>
			<path class="st0" d="M128.8,54.1c0.5-1.5,2-2.4,3.9-2.4c3.4,0,5.5,2.3,5.5,7.2s-2.1,7.2-5.5,7.2c-2,0-3.4-1-3.9-2.4v2.1h-2.7
				V46.5h2.7V54.1z M132.2,63.7c2.5,0,3.4-1.9,3.4-4.9s-0.8-4.9-3.4-4.9s-3.4,1.9-3.4,4.9C128.8,61.9,129.6,63.7,132.2,63.7z"/>
			<path class="st0" d="M142,49.4v-2.9h2.7v2.9H142z M142,65.7V52h2.7v13.7H142z"/>
			<path class="st0" d="M152.9,61.5c0,1.7,0.6,2.1,2.3,2.1h1.4v2.2c-0.4,0.1-1.2,0.1-1.8,0.1c-3.2,0-4.6-0.9-4.6-3.9v-7.8h-2V52h2
				v-3.9h2.7V52h3.7v2.2h-3.7L152.9,61.5L152.9,61.5z"/>
			<path class="st0" d="M176.9,65.7l-5.4-13.4v13.4h-2.8V46.5h3.1l6.4,16l6.4-16h3.2v19.2H185V52.3l-5.3,13.4H176.9z"/>
			<path class="st0" d="M192.1,52h2.7v8.4c0,2.4,1,3.4,2.7,3.4c2,0,3.5-1.5,3.5-4.4V52h2.7v13.7H201v-2.3c-0.6,1.6-2,2.6-4.1,2.6
				c-3,0-4.7-2-4.7-5.5L192.1,52L192.1,52z"/>
			<path class="st0" d="M217.7,55.7V56H215v-0.3c0-1-0.8-1.8-2.4-1.8c-1.6,0-2.4,0.8-2.4,1.8c0,1.5,1.2,1.5,3.8,2.1
				c3,0.5,4.3,1.8,4.3,4.2c0,2.3-2.1,4.1-5.4,4.1c-3.3,0-5.4-1.7-5.4-4.1v-0.4h2.7V62c0,1.2,1.1,2,2.7,2c1.6,0,2.7-0.8,2.7-1.9
				c0-1.6-1.3-1.8-3.7-2.3c-3-0.5-4.3-1.7-4.3-4s1.9-4,5.1-4C215.8,51.7,217.7,53.3,217.7,55.7z"/>
			<path class="st0" d="M224.2,59.7c0.1,2.6,1.1,4.1,3.4,4.1c1.7,0,2.7-0.8,2.9-2.2h2.8c-0.4,2.8-2.4,4.4-5.7,4.4
				c-4.1,0-6.1-2.6-6.1-7.2s2-7.2,6.1-7.2c4,0,6,2.6,6,7.2c0,0.3,0,0.6,0,0.8h-9.4V59.7z M224.2,57.6h6.6c-0.2-2.3-1.2-3.7-3.3-3.7
				C225.3,53.9,224.4,55.3,224.2,57.6z"/>
			<path class="st0" d="M237.2,52h2.7v8.4c0,2.4,1,3.4,2.7,3.4c2,0,3.5-1.5,3.5-4.4V52h2.7v13.7h-2.7v-2.3c-0.6,1.6-2,2.6-4.1,2.6
				c-3,0-4.7-2-4.7-5.5L237.2,52L237.2,52z"/>
			<path class="st0" d="M264.1,65.7h-2.7v-8.9c0-2-0.8-2.9-2.5-2.9c-1.9,0-3.3,1.5-3.3,4.4v7.4H253V52h2.7v2.3
				c0.6-1.6,1.9-2.6,3.9-2.6s3.5,1,4.1,2.7c0.8-1.9,2.2-2.7,4.3-2.7c2.9,0,4.6,1.9,4.6,5.3v8.8h-2.7v-8.9c0-2-0.9-2.9-2.5-2.9
				c-1.9,0-3.3,1.5-3.3,4.4V65.7z"/>
		</g>
	</g>
	<g>
		<path class="st0" d="M71.5,9.2c0-3.7,0.9-6.3,2.5-7.8C75,0.5,76.4,0,78.1,0s3,0.5,4.1,1.4c1.3,1.2,2.1,3.2,2.4,5.9h3V0.4h3.5v18.3
			h-3.5v-8.1h-3c-0.2,2.9-1.1,5-2.4,6.2c-1.1,0.9-2.4,1.4-4.1,1.4S75,17.7,74,16.8C72.4,15.4,71.5,12.8,71.5,9.2z M94.2,33.2v-8.7
			H73.8v-3.4H98v12.1H94.2z M75,9.2c0,2.3,0.3,4,1.2,4.9c0.5,0.6,1.1,0.9,2,0.9c0.8,0,1.5-0.3,1.9-0.9c0.8-1,1.2-2.6,1.2-4.9
			s-0.4-4-1.2-4.9c-0.5-0.5-1.1-0.9-1.9-0.9s-1.5,0.3-2,0.9C75.4,5.2,75,6.8,75,9.2z M94.3,19V0.2H98V19H94.3z"/>
		<path class="st0" d="M115,22.4c-1.4,3.7-5.1,6.7-9.1,8.1v-3.6c3.8-1.8,7.2-5.1,7.2-14.1V0.6h3.7v12.2c0,9,3.4,12.3,7.2,14.1v3.6
			C120.1,29.1,116.5,26.1,115,22.4z M132.4,0.2v32.4h-3.8V0.2H132.4z"/>
		<path class="st0" d="M145.8,6.1h8V0.6h3.7V18h-15.3V0.6h3.7L145.8,6.1L145.8,6.1z M155.3,27.4c-2.4,2.8-6.9,5.1-12.7,5.6v-3.3
			c6.5-0.9,10.9-3.9,10.9-8.2v-1h3.7v1c0,4.3,4.4,7.3,10.9,8.2V33C162.1,32.5,157.7,30.2,155.3,27.4z M153.7,14.6V9.4h-8v5.2
			C145.7,14.6,153.7,14.6,153.7,14.6z M167.5,20.9h-3.8V0.2h3.8V20.9z"/>
		<path class="st0" d="M176.3,24.3v-3.4h27.9v3.4h-6V33h-3.7v-8.7h-8.3V33h-3.7v-8.7H176.3z M202.5,0.6v15.7h-24.6V0.6H202.5z
			 M181.7,13h17.1V4h-17.1V13z"/>
		<path class="st0" d="M211.9,4.2V0.8h17v3.4h-6.7v8.7c0,8.7,3.3,12.2,6.9,13.9v3.6c-3.9-1.4-7.3-4.5-8.8-8c-1.5,3.4-5,6.6-8.8,8
			v-3.6c3.6-1.8,6.9-5.3,6.9-13.9V4.2H211.9z M237.4,0.2v32.4h-3.8V0.2H237.4z"/>
		<path class="st0" d="M246.7,8.6c0-3,0.9-5.3,2.6-6.8c1.4-1.2,3.4-1.8,5.6-1.8c2.3,0,4.2,0.6,5.6,1.8s2.3,2.9,2.5,5.1h5.6V0.2h3.8
			v18.3h-3.8v-8.2H263c-0.3,2.1-1.2,3.8-2.5,5c-1.4,1.2-3.3,1.8-5.6,1.8c-2.3,0-4.2-0.6-5.6-1.8C247.6,13.8,246.7,11.6,246.7,8.6z
			 M249,33V20.4h23.5V33H249z M250.3,8.6c0,1.8,0.5,3.2,1.5,4.1c0.8,0.7,1.8,1.1,3.1,1.1s2.4-0.4,3.1-1.1c0.9-0.9,1.5-2.3,1.5-4.1
			S259,5.4,258,4.5c-0.8-0.8-1.8-1.1-3.1-1.1c-1.3,0-2.3,0.4-3.1,1.1C250.8,5.4,250.3,6.8,250.3,8.6z M268.7,23.7h-15.9v6h15.9V23.7
			z"/>
	</g>
	<polygon class="st0" points="33,0.4 -0.6,12.6 66.6,12.6 	"/>
	<g>
		<path class="st0" d="M33.7,55.3c-10.4,0-16.1-4.1-16.1-9.6v-0.9h5.2v0.9c0,3.6,4,6.3,10.9,6.3c6.8,0,10.8-2.7,10.8-6.3
			c0-3.1-2.8-5.4-9-6.3l-6.2-0.9c-7.4-1.1-11.8-3.9-11.8-8.9s5.2-9.1,15.2-9.1c9.9,0,15.2,4.1,15.2,9.1v0.6h-5.3v-0.6
			c0-3.5-3.5-5.8-9.9-5.8s-10,2.4-10,5.8c0,3.2,2.8,4.9,8.2,5.8l6.2,0.9c8.3,1.2,12.6,4.4,12.6,9.4C49.8,51.1,44,55.3,33.7,55.3z"/>
	</g>
	<rect x="56.6" y="17.1" class="st0" width="3.3" height="40.7"/>
	<rect x="6.1" y="16.7" class="st0" width="3.3" height="40.7"/>
</g>
</svg>
